<?xml version="1.0" standalone="no"?>
<!DOCTYPE svg PUBLIC "-//W3C//DTD SVG 20010904//EN"
 "http://www.w3.org/TR/2001/REC-SVG-20010904/DTD/svg10.dtd">
<svg version="1.0" xmlns="http://www.w3.org/2000/svg"
 width="1220.000000pt" height="1398.000000pt" viewBox="0 0 1220.000000 1398.000000"
 preserveAspectRatio="xMidYMid meet">
<metadata>
Created by potrace 1.16, written by Peter Selinger 2001-2019
</metadata>
<g transform="translate(0.000000,1398.000000) scale(0.100000,-0.100000)"
fill="#000000" stroke="none">
<path d="M0 6990 l0 -6990 2323 1 c1277 0 2315 3 2307 6 -8 3 -23 12 -32 20
-9 8 -21 12 -27 8 -7 -4 -9 5 -4 26 4 24 2 34 -10 41 -24 13 -24 103 -1 112
13 5 15 14 10 41 -6 30 -5 34 10 28 14 -5 16 -3 11 11 -4 10 -2 16 6 15 19 -2
57 12 57 22 0 4 -4 11 -10 14 -14 8 -13 125 1 125 7 0 8 11 3 32 -6 29 -5 31
10 19 14 -11 16 -11 16 3 0 9 -6 16 -12 16 -9 0 -9 3 1 9 12 8 12 13 -3 36
-10 15 -26 30 -36 32 -11 3 -16 11 -13 19 4 10 0 12 -12 7 -15 -5 -17 -2 -12
16 6 26 -10 81 -25 81 -5 0 -6 5 -3 10 10 16 -5 50 -21 50 -16 0 -19 21 -5 35
6 6 6 41 2 85 -6 55 -9 64 -11 35 -2 -39 -3 -39 -10 -10 -13 52 -12 85 4 79
11 -4 16 11 21 69 4 41 4 84 0 96 -6 20 -3 21 48 21 l54 0 23 63 c68 189 149
302 256 358 50 25 165 30 204 8 57 -33 115 -119 80 -119 -5 0 -10 -5 -10 -10
0 -6 -16 -35 -37 -65 l-36 -56 -28 27 c-32 30 -94 35 -130 10 -40 -27 -88
-111 -95 -165 l-7 -51 36 0 c26 0 37 5 39 18 2 9 4 -10 3 -43 0 -33 2 -67 5
-75 3 -8 -1 -14 -10 -15 -12 0 -14 -12 -11 -65 1 -36 8 -68 13 -71 6 -4 8 -14
5 -23 -11 -29 9 -25 47 10 29 26 43 33 62 28 14 -4 31 -1 40 7 14 11 15 10 12
-6 -2 -12 3 -20 12 -21 42 -3 43 -4 31 -17 -13 -16 -5 -28 14 -21 9 4 11 -2 8
-21 -5 -21 -2 -24 12 -19 15 6 16 4 6 -15 -10 -17 -9 -22 4 -27 8 -4 15 -11
14 -18 -3 -22 23 -76 37 -76 17 0 18 -12 2 -28 -10 -10 -10 -17 0 -32 17 -27
15 -41 -4 -33 -11 4 -15 2 -12 -8 6 -18 -59 -82 -74 -73 -7 5 -9 2 -5 -9 4
-10 1 -14 -6 -12 -15 5 -89 -37 -95 -53 -2 -7 4 -12 13 -12 12 0 16 -6 12 -19
-3 -13 -1 -18 8 -14 11 4 12 -7 8 -51 -4 -42 -3 -56 7 -56 9 0 10 -3 1 -14 -7
-8 -9 -31 -5 -60 6 -39 4 -46 -11 -46 -13 0 -16 -6 -11 -25 5 -20 3 -23 -10
-18 -14 5 -16 2 -11 -16 4 -16 2 -21 -8 -18 -8 4 -11 -1 -8 -13 3 -13 0 -18
-14 -17 -11 1 -18 -4 -17 -16 1 -9 -4 -17 -12 -17 -8 0 -14 -5 -14 -11 0 -6
-7 -9 -14 -6 -11 4 -13 1 -9 -10 5 -13 1 -15 -22 -9 -23 6 -26 4 -21 -10 5
-13 2 -15 -16 -11 -13 3 -39 -1 -58 -8 -29 -11 585 -14 3668 -14 l3702 -1 0
6990 0 6990 -6100 0 -6100 0 0 -6990z m3252 4820 c23 -11 47 -20 52 -20 6 0
44 -14 85 -30 40 -17 83 -30 95 -30 34 0 98 -26 108 -44 6 -11 23 -16 52 -16
28 0 52 -7 69 -20 18 -14 40 -20 79 -20 34 0 68 -7 93 -20 22 -11 55 -20 75
-20 23 0 41 -7 53 -20 9 -11 29 -20 44 -20 16 0 42 -9 58 -20 17 -11 47 -20
70 -20 23 0 53 -9 70 -20 17 -11 36 -20 43 -20 8 0 25 -9 39 -20 18 -14 41
-20 76 -20 35 0 53 -5 62 -17 8 -11 31 -17 71 -20 55 -4 93 -17 186 -64 20
-11 46 -19 58 -19 11 0 38 -9 60 -20 24 -12 59 -20 91 -20 36 0 58 -6 76 -20
17 -13 41 -20 69 -20 23 0 63 -9 89 -20 26 -11 58 -20 72 -20 14 0 36 -9 50
-20 14 -11 40 -20 57 -20 18 0 49 -9 71 -20 22 -11 46 -20 54 -20 20 0 77 -18
129 -41 23 -11 62 -19 85 -19 42 0 69 -18 119 -79 16 -19 28 -21 123 -21 94 0
105 -2 115 -20 7 -13 21 -20 39 -20 15 0 36 -9 46 -20 13 -15 31 -20 67 -20
29 0 59 -7 75 -17 15 -10 54 -21 87 -24 70 -8 152 -36 178 -61 13 -13 34 -18
73 -18 48 0 59 -4 87 -30 29 -28 36 -30 108 -30 72 0 79 -2 108 -30 18 -16 41
-30 53 -30 11 0 32 -9 46 -20 19 -15 41 -20 83 -20 55 0 109 -19 190 -65 14
-8 43 -15 64 -15 22 0 47 -7 58 -16 10 -10 41 -19 70 -22 30 -3 64 -13 77 -23
16 -13 40 -19 77 -19 31 0 58 -6 66 -13 21 -22 60 -40 97 -46 24 -4 40 -15 53
-36 23 -39 38 -73 38 -89 0 -7 9 -21 20 -31 11 -10 20 -31 20 -47 0 -15 9 -47
19 -71 11 -23 21 -62 24 -86 4 -32 15 -53 41 -80 29 -30 36 -45 36 -76 0 -47
8 -61 44 -83 32 -20 76 -133 76 -194 0 -27 8 -47 30 -71 19 -23 30 -46 30 -65
0 -17 5 -34 10 -37 6 -3 10 -17 10 -31 0 -13 18 -60 40 -104 22 -44 40 -89 40
-101 0 -11 16 -53 36 -92 28 -55 38 -90 44 -150 7 -72 10 -81 44 -116 20 -20
36 -45 36 -54 0 -10 18 -37 40 -61 37 -40 40 -48 40 -99 0 -48 4 -61 29 -89
15 -18 31 -46 34 -63 14 -74 25 -112 39 -145 9 -19 19 -47 22 -62 3 -14 17
-40 31 -56 14 -16 39 -74 56 -128 17 -55 39 -116 50 -136 10 -20 19 -48 19
-61 0 -13 9 -32 20 -42 11 -10 20 -31 20 -47 0 -17 9 -41 20 -55 12 -15 20
-41 20 -62 0 -20 7 -47 15 -61 8 -14 17 -33 21 -42 3 -10 17 -37 30 -60 60
-107 94 -179 94 -200 0 -13 9 -34 20 -48 11 -14 20 -37 20 -53 0 -15 18 -64
40 -108 22 -45 40 -94 40 -109 0 -15 8 -38 19 -51 10 -13 21 -43 24 -67 3 -24
12 -51 20 -60 8 -9 18 -28 22 -42 4 -14 17 -35 28 -48 25 -27 46 -99 47 -160
0 -36 6 -49 30 -72 36 -34 50 -68 50 -125 0 -37 6 -51 40 -90 26 -30 40 -56
40 -74 0 -33 43 -133 65 -151 8 -7 15 -21 15 -32 0 -11 9 -31 20 -45 12 -15
20 -41 20 -63 0 -23 8 -46 20 -60 11 -13 20 -28 20 -35 0 -6 9 -30 20 -53 11
-22 20 -51 20 -63 0 -12 14 -37 30 -56 17 -18 30 -45 30 -59 0 -14 16 -54 35
-89 57 -101 65 -150 65 -377 0 -165 -3 -204 -15 -218 -8 -9 -24 -52 -36 -96
-17 -65 -28 -87 -65 -126 -32 -35 -44 -55 -44 -78 0 -32 -38 -108 -65 -130 -8
-7 -15 -22 -15 -34 0 -11 -9 -36 -20 -54 -11 -18 -20 -41 -20 -52 0 -11 -9
-24 -20 -30 -11 -6 -20 -19 -20 -29 0 -10 -9 -30 -20 -44 -11 -14 -20 -34 -20
-45 0 -12 -4 -24 -10 -27 -5 -3 -10 -17 -10 -31 0 -14 -9 -42 -20 -62 -10 -20
-22 -50 -25 -66 -3 -16 -19 -42 -35 -58 -41 -40 -100 -131 -100 -152 0 -10 -8
-30 -19 -44 -29 -42 -61 -114 -61 -137 0 -12 -9 -32 -20 -45 -11 -13 -20 -35
-20 -50 0 -15 -9 -35 -20 -45 -11 -10 -20 -28 -20 -40 0 -13 -6 -28 -13 -34
-8 -6 -19 -28 -25 -50 -7 -21 -19 -44 -27 -51 -8 -7 -15 -20 -15 -29 0 -9 -9
-29 -20 -46 -11 -16 -20 -40 -20 -53 0 -26 -23 -67 -57 -100 -13 -13 -23 -33
-23 -46 0 -20 -26 -44 -36 -33 -6 5 32 98 42 105 6 4 11 34 12 67 2 39 9 69
20 85 20 27 62 138 62 162 0 8 14 27 30 43 16 16 30 33 30 38 0 10 36 98 76
185 13 29 24 59 24 66 0 8 6 16 14 19 8 3 20 31 26 61 6 31 16 56 21 56 5 0 9
9 9 19 0 11 9 23 20 26 11 3 20 13 20 21 0 8 9 40 21 72 21 58 46 145 56 194
3 15 18 41 34 59 17 19 31 48 35 75 3 24 12 48 20 54 7 7 23 40 34 76 12 35
28 70 35 78 8 7 17 29 20 49 4 20 13 41 21 48 8 6 14 16 14 21 0 6 6 24 14 41
21 45 63 175 70 216 3 19 12 42 20 50 23 28 47 136 40 180 -4 23 -11 44 -15
47 -5 3 -9 23 -9 46 0 28 -9 53 -30 84 -16 25 -33 63 -36 85 -4 23 -15 48 -24
57 -10 10 -21 32 -25 49 -3 18 -12 36 -18 40 -13 8 -51 90 -63 133 -3 14 -12
32 -19 40 -7 8 -25 52 -39 98 -14 46 -33 90 -41 99 -8 8 -15 31 -15 51 0 25
-12 55 -35 92 -19 30 -35 61 -35 70 0 9 -11 39 -25 65 -13 27 -27 61 -30 76
-4 15 -12 30 -20 32 -7 3 -16 25 -20 49 -4 24 -18 56 -31 71 -13 16 -24 37
-24 48 0 11 -11 44 -24 72 -13 29 -27 59 -30 67 -3 8 -10 22 -15 30 -41 72
-89 209 -94 270 -1 10 -11 23 -23 28 -16 8 -23 23 -28 60 -4 30 -14 56 -26 67
-11 10 -20 30 -20 45 0 15 -9 39 -20 53 -11 14 -23 40 -26 59 -4 18 -12 40
-19 48 -7 8 -18 35 -25 60 -7 25 -15 50 -20 55 -4 6 -10 25 -13 43 -4 18 -17
47 -31 65 -32 43 -41 74 -26 93 10 11 8 18 -13 34 -14 11 -29 31 -33 43 -4 12
-17 34 -29 49 -18 21 -24 45 -30 107 -5 61 -11 81 -21 81 -9 0 -36 43 -65 105
-27 57 -54 107 -59 110 -6 3 -10 14 -10 23 0 10 -9 35 -20 57 -11 22 -20 51
-20 66 0 14 -10 41 -23 60 -12 19 -35 72 -51 119 -35 106 -58 160 -67 160 -11
0 -47 80 -57 125 -8 42 -25 52 -89 54 -31 1 -33 3 -33 37 0 31 4 37 35 50 44
18 46 46 5 71 -17 10 -28 23 -26 30 3 6 -2 17 -10 23 -8 7 -14 22 -14 34 0 12
-6 30 -13 41 -19 28 -57 133 -57 156 0 21 -46 127 -65 149 -15 17 -55 118 -55
138 0 7 -18 49 -40 93 -22 44 -40 90 -40 102 0 12 -16 44 -35 71 -19 27 -35
59 -35 71 0 37 -27 62 -80 75 -27 7 -52 16 -55 20 -3 5 -29 11 -58 15 -28 4
-65 13 -82 20 -113 47 -187 70 -220 66 -30 -3 -172 43 -240 78 -48 24 -73 30
-124 31 -45 0 -67 4 -75 15 -6 8 -38 20 -71 26 -33 6 -68 15 -77 20 -10 5 -27
9 -38 9 -53 0 -216 68 -228 96 -9 18 -22 22 -99 28 -48 3 -113 13 -143 21
-150 39 -234 65 -254 78 -12 8 -42 18 -66 22 -25 4 -53 11 -62 16 -10 6 -44
14 -75 20 -32 6 -67 16 -78 23 -11 7 -38 16 -60 20 -52 10 -142 39 -180 60
-16 9 -51 19 -78 22 -26 4 -50 10 -53 15 -2 4 -11 6 -19 2 -8 -3 -15 -1 -15 5
0 5 -35 15 -77 22 -42 6 -84 16 -92 21 -9 4 -45 15 -80 24 -35 8 -85 26 -112
39 -26 14 -69 28 -96 32 -26 4 -62 13 -80 20 -18 8 -48 14 -68 14 -21 0 -38 6
-41 14 -9 24 -89 30 -124 9 -43 -25 -44 -70 -4 -139 29 -49 78 -189 89 -251 3
-23 13 -47 21 -54 8 -6 14 -17 14 -23 0 -7 5 -17 12 -24 10 -10 21 -43 58
-182 24 -86 65 -190 76 -190 7 0 13 -29 16 -74 4 -61 12 -88 41 -144 20 -39
39 -87 43 -109 4 -21 13 -52 21 -70 7 -18 13 -43 13 -56 0 -13 12 -37 26 -52
32 -34 47 -73 40 -101 -4 -13 -1 -24 8 -27 7 -3 18 -32 25 -65 6 -33 18 -66
26 -72 8 -7 12 -16 9 -21 -3 -5 11 -58 30 -118 20 -60 36 -116 36 -123 0 -8
11 -29 24 -47 13 -18 27 -47 30 -66 4 -19 13 -47 21 -62 8 -15 15 -33 15 -39
0 -20 41 -95 55 -101 8 -3 15 -10 15 -17 0 -6 9 -29 20 -51 17 -33 53 -141 52
-155 -1 -3 7 -14 17 -25 9 -11 18 -33 20 -50 2 -16 7 -38 12 -47 5 -9 9 -27 9
-39 0 -12 6 -30 14 -38 8 -9 19 -43 25 -75 6 -33 18 -67 26 -76 8 -9 15 -20
15 -24 0 -5 6 -22 14 -39 7 -18 19 -52 26 -77 7 -25 25 -65 42 -89 16 -24 27
-49 24 -56 -6 -18 14 -86 33 -108 8 -10 18 -44 22 -76 3 -33 18 -83 32 -112
14 -30 30 -73 36 -96 7 -24 18 -43 25 -43 8 0 17 -8 21 -17 6 -17 7 -17 20 0
11 16 13 16 19 1 3 -8 6 -30 7 -47 0 -18 4 -41 8 -51 4 -10 8 27 8 84 1 58 6
107 12 113 6 6 11 46 11 89 0 45 4 78 10 78 14 0 13 143 -2 158 -16 16 19 92
43 92 13 0 17 8 17 31 -1 17 -7 33 -15 36 -18 7 -16 195 2 233 11 22 24 208
25 348 0 38 4 52 14 52 21 0 36 -84 36 -199 0 -95 1 -98 25 -109 40 -18 45
-15 45 28 0 29 4 40 15 40 13 0 15 -28 15 -189 0 -167 -2 -194 -20 -232 -16
-36 -20 -66 -20 -171 0 -79 -4 -128 -10 -128 -5 0 -10 -14 -10 -30 0 -41 -26
-90 -48 -90 -16 -1 -16 -1 1 -11 22 -13 12 -32 -14 -24 -18 6 -19 1 -19 -80 0
-84 1 -86 23 -83 20 3 22 10 28 83 l5 80 4 -65 c2 -36 3 -79 1 -97 -1 -17 3
-34 9 -38 12 -7 13 -45 1 -63 -7 -11 -12 -12 -29 -1 -17 10 -23 10 -36 0 -22
-19 -20 -37 7 -56 22 -15 22 -19 23 -241 0 -150 4 -228 11 -232 6 -4 14 -42
18 -84 4 -46 13 -82 21 -89 8 -6 14 -17 14 -24 0 -6 9 -20 20 -30 13 -12 20
-31 20 -56 0 -21 6 -42 13 -46 7 -4 18 -24 23 -43 8 -28 15 -35 34 -35 22 0
26 5 33 54 4 30 13 62 20 70 31 39 36 71 39 249 2 147 6 185 18 192 10 6 16
32 18 79 4 58 1 72 -12 77 -22 8 -24 149 -2 157 11 4 15 44 21 174 5 139 10
175 26 209 18 36 20 58 18 170 -1 103 1 135 15 159 18 34 21 81 6 90 -16 10
-13 152 4 158 10 4 13 17 9 45 -3 24 0 50 10 68 10 20 13 48 9 91 -2 34 -1 83
3 109 l7 46 24 -23 c13 -12 24 -31 24 -41 0 -11 7 -18 20 -18 14 0 20 -7 20
-21 0 -36 25 -15 28 24 3 34 1 37 -22 37 -27 0 -43 15 -26 25 5 3 10 21 10 39
0 37 21 61 45 52 9 -3 15 -18 15 -40 0 -40 12 -51 55 -51 33 0 35 -2 35 -45 0
-20 -9 -39 -25 -54 -14 -13 -25 -28 -25 -35 0 -19 32 -12 37 8 5 20 43 36 54
23 13 -14 20 -70 10 -77 -7 -4 -5 -15 5 -31 15 -23 15 -26 -1 -44 -17 -19 -17
-21 1 -55 10 -19 24 -35 30 -35 18 0 47 37 35 45 -16 9 -13 35 4 35 8 0 15 -7
15 -15 0 -8 12 -29 28 -46 27 -30 47 -74 62 -136 6 -24 4 -33 -7 -37 -19 -8
-63 3 -63 16 0 5 -12 8 -27 6 -25 -3 -28 -7 -31 -47 -4 -48 21 -89 43 -71 8 7
17 4 30 -10 10 -11 24 -20 30 -20 7 0 15 -9 18 -20 4 -14 14 -20 35 -20 40 0
47 13 28 52 -9 17 -16 41 -16 52 l0 21 13 -21 c6 -11 22 -35 34 -54 12 -18 19
-38 16 -45 -2 -7 4 -33 15 -57 29 -66 31 -75 19 -87 -6 -6 -21 -11 -34 -11
-17 0 -23 6 -24 23 -1 33 -24 90 -37 95 -8 2 -12 -11 -12 -42 0 -27 5 -46 11
-46 8 0 8 -4 0 -14 -10 -11 -8 -16 8 -21 12 -3 21 -13 21 -21 0 -14 -5 -16
-50 -18 -24 -1 -25 -4 -25 -61 -1 -56 -2 -60 -23 -58 -19 2 -22 -2 -22 -38 0
-32 4 -42 19 -46 14 -4 21 -15 23 -41 2 -26 8 -38 21 -40 12 -3 17 3 17 22 0
21 8 30 39 43 39 17 81 77 81 117 0 9 7 19 15 22 8 4 15 14 16 23 0 10 2 11 6
4 2 -7 11 -13 18 -13 8 0 20 -10 26 -22 12 -21 2 -36 -35 -52 -7 -3 -4 -9 7
-16 21 -13 22 -43 2 -60 -11 -9 -14 -38 -14 -125 0 -84 -6 -134 -22 -192 -20
-73 -21 -93 -14 -298 5 -172 3 -235 -8 -290 -8 -38 -15 -128 -16 -199 -2 -71
-7 -140 -12 -153 -5 -13 -9 -37 -9 -53 0 -16 -5 -32 -11 -35 -6 -5 -10 -53 -8
-133 1 -76 -3 -138 -10 -155 -6 -17 -11 -92 -11 -186 0 -87 -3 -161 -7 -165
-5 -4 -12 -78 -18 -164 -10 -152 -11 -157 -32 -160 -23 -3 -23 -5 -23 -163 0
-135 2 -159 15 -159 8 0 15 -5 15 -10 0 -6 -5 -9 -11 -8 -16 4 -20 -24 -27
-182 -8 -153 6 -308 32 -357 9 -18 19 -60 23 -93 3 -33 10 -63 14 -66 5 -3 9
-20 9 -39 0 -26 5 -34 23 -39 18 -4 26 -16 35 -57 7 -28 12 -60 12 -71 0 -11
13 -32 29 -48 27 -28 41 -66 41 -115 0 -13 11 -46 25 -73 14 -28 25 -63 25
-80 0 -16 7 -35 15 -42 9 -7 15 -20 14 -29 -6 -43 26 -151 58 -201 14 -22 23
-50 23 -75 0 -28 6 -46 20 -57 10 -10 29 -49 40 -87 12 -38 28 -75 35 -81 7
-6 11 -19 8 -28 -2 -10 8 -49 22 -87 14 -39 31 -86 37 -105 5 -19 16 -39 22
-45 7 -5 25 -62 41 -125 15 -63 36 -133 46 -155 10 -22 25 -65 34 -95 10 -30
32 -93 51 -138 19 -46 34 -91 34 -101 0 -9 9 -22 19 -28 13 -8 22 -29 27 -58
3 -25 12 -51 19 -58 6 -7 14 -32 18 -56 3 -28 13 -48 26 -58 26 -18 18 -35
-44 -102 -24 -25 -54 -67 -68 -92 -61 -109 -118 -312 -98 -347 7 -11 10 -13
11 -3 0 9 9 12 30 9 36 -5 54 17 76 94 9 27 24 65 35 84 10 19 19 39 19 45 0
13 55 95 89 132 14 16 46 43 69 59 36 25 54 30 103 31 55 0 63 -3 94 -33 19
-19 35 -39 35 -45 0 -16 35 -47 43 -38 4 3 7 14 7 23 0 9 6 28 13 43 11 25 16
27 75 27 l64 0 -5 -52 c-3 -29 -10 -105 -16 -168 -21 -202 -21 -200 24 -200
27 0 35 4 35 18 0 11 5 8 15 -12 18 -35 18 -36 0 -36 -12 0 -15 -14 -15 -63 0
-35 5 -68 11 -74 12 -12 3 -37 -11 -28 -4 3 -10 -5 -14 -18 -9 -34 -7 -75 4
-82 16 -10 13 -68 -4 -62 -17 7 -32 -81 -16 -97 16 -16 12 -66 -5 -66 -14 0
-22 -37 -15 -65 13 -47 11 -65 -5 -65 -12 0 -16 -6 -13 -18 6 -22 -11 -39 -36
-34 -14 3 -17 0 -13 -12 6 -14 -8 -16 -123 -16 -101 0 -132 3 -144 15 -18 19
-40 20 -33 1 4 -10 0 -12 -15 -8 -11 3 -24 -1 -28 -9 -12 -19 -174 -24 -167
-5 4 9 -2 11 -19 8 -14 -2 -24 0 -24 7 0 6 -10 11 -22 11 -17 0 -19 3 -11 11
9 9 4 19 -19 40 -16 16 -35 26 -40 23 -6 -4 -8 2 -3 15 4 15 -1 27 -20 45 -21
19 -25 30 -19 48 6 20 5 21 -10 9 -14 -12 -16 -10 -16 12 0 14 4 28 9 31 13 9
1 46 -15 46 -16 0 -19 46 -4 55 6 3 10 10 10 16 0 17 -72 89 -90 89 -31 0 -54
-82 -29 -107 13 -13 7 -59 -7 -56 -15 3 -26 -69 -14 -81 16 -16 12 -76 -6 -83
-12 -4 -14 -14 -10 -38 5 -25 1 -36 -18 -54 -14 -13 -29 -20 -35 -17 -7 4 -8
1 -5 -8 5 -14 -12 -16 -140 -16 -91 0 -146 4 -146 10 0 6 -10 10 -21 10 -17 0
-19 3 -10 13 13 17 4 28 -16 20 -12 -5 -14 -1 -8 17 6 19 4 22 -9 17 -13 -5
-16 1 -16 38 0 32 4 45 14 45 16 0 28 51 15 64 -15 16 -11 76 5 76 19 0 30 64
15 88 -13 21 -5 57 10 47 16 -9 25 83 10 101 -11 14 -11 18 4 29 26 19 22 27
-37 78 -40 35 -63 47 -86 47 -45 0 -129 56 -123 81 3 10 9 19 14 19 5 0 9 6 9
14 0 21 29 28 65 15 28 -10 38 -9 66 7 18 11 41 35 50 54 27 55 70 203 76 262
5 48 3 57 -22 86 -55 65 -169 82 -255 38 -42 -21 -47 -22 -80 -8 -45 19 -211
10 -247 -13 -32 -22 -39 -42 -53 -170 -6 -60 -14 -121 -16 -134 -5 -25 -12
-25 -86 1 -44 15 -46 24 -26 150 9 61 9 83 -2 108 -22 52 -55 62 -198 59 -77
-2 -135 2 -147 8 -11 6 -45 14 -75 17 -44 5 -68 1 -120 -17 l-65 -24 -87 44
c-49 24 -102 43 -120 43 -18 0 -44 9 -58 20 -17 13 -41 20 -73 20 -41 0 -53 5
-91 40 -24 22 -49 40 -56 40 -7 0 -46 23 -87 50 -41 28 -84 50 -96 50 -21 0
-39 10 -101 54 -14 10 -44 22 -67 27 -23 6 -82 30 -131 54 -49 25 -94 45 -99
45 -6 0 -23 8 -37 18 -15 10 -47 24 -72 32 -25 7 -71 26 -102 42 -32 15 -63
28 -70 28 -7 0 -24 9 -38 20 -14 11 -32 20 -40 20 -8 0 -35 14 -59 30 -24 17
-51 30 -60 30 -9 0 -27 9 -41 20 -14 11 -41 20 -60 20 -22 0 -52 12 -79 30
-24 17 -50 30 -58 30 -8 0 -31 11 -51 25 -20 14 -57 32 -82 40 -45 15 -120 71
-120 90 0 5 28 38 62 72 l62 63 69 0 c64 0 72 -3 108 -34 26 -22 61 -38 104
-49 64 -16 64 -16 110 9 60 34 61 63 4 128 -31 35 -66 58 -146 96 -144 69
-187 83 -237 75 -23 -3 -90 -9 -151 -13 -75 -5 -120 -13 -142 -25 -18 -9 -53
-17 -80 -17 -28 0 -83 -13 -133 -31 -62 -22 -95 -29 -120 -24 -19 3 -64 9
-100 13 -40 4 -79 16 -100 29 -19 12 -50 29 -67 37 -18 8 -42 24 -55 35 -12
12 -28 21 -35 21 -7 0 -48 36 -91 81 -74 77 -78 80 -105 70 -41 -16 -141 -13
-196 5 -31 10 -64 32 -92 60 -40 41 -47 44 -95 44 -57 0 -130 27 -166 60 -12
11 -30 20 -40 20 -11 0 -51 18 -91 40 -40 21 -99 46 -131 54 -33 9 -76 27 -95
40 -20 13 -57 31 -83 40 -26 9 -89 36 -140 62 -149 74 -190 114 -116 114 16 0
42 8 56 18 15 10 61 29 102 42 41 13 86 31 100 40 13 8 39 21 57 27 18 7 49
19 68 26 20 8 56 29 82 48 66 49 81 56 148 70 33 7 77 21 97 31 21 10 47 18
59 18 11 0 41 18 66 40 l46 40 97 0 c86 0 107 -4 171 -30 64 -26 79 -28 107
-19 23 8 41 8 64 0 17 -6 53 -11 80 -11 29 0 63 -8 85 -20 21 -11 48 -20 61
-20 21 0 58 -21 107 -61 11 -9 49 -22 85 -28 97 -18 197 -50 211 -67 7 -8 24
-22 39 -29 24 -12 30 -12 57 5 17 10 43 34 58 54 l28 36 -32 64 c-32 65 -146
186 -176 186 -8 0 -29 13 -47 29 -18 15 -60 42 -93 59 -33 17 -78 49 -99 71
l-40 41 32 39 c18 22 32 47 32 55 0 19 44 53 79 61 40 9 121 90 121 122 0 17
-18 42 -62 84 -180 171 -269 249 -284 249 -10 0 -67 50 -129 110 -62 61 -124
114 -138 118 -15 4 -105 84 -206 185 -98 97 -186 177 -196 177 -9 0 -40 22
-69 50 -29 28 -61 50 -71 50 -10 0 -86 68 -170 150 -89 88 -160 150 -171 150
-11 0 -65 47 -129 111 -61 61 -127 119 -148 130 -48 25 -127 97 -127 115 0 9
11 14 28 14 15 0 39 8 52 17 14 10 54 21 90 25 36 5 92 13 125 18 33 6 103 14
155 18 65 5 103 13 120 25 21 14 48 17 186 17 l161 0 38 30 c24 19 49 30 69
30 17 0 45 8 61 17 23 13 69 19 200 25 263 12 340 20 362 41 16 14 39 17 123
17 88 0 108 3 138 22 30 19 38 20 68 9 19 -7 40 -9 46 -4 7 4 39 10 72 14 52
6 63 12 107 55 46 46 49 51 49 101 0 46 -4 57 -40 98 -22 25 -40 53 -40 61 0
8 -24 41 -54 73 -30 32 -57 69 -61 82 -4 13 -29 47 -56 74 -26 28 -55 66 -63
85 -8 19 -35 55 -61 80 -41 40 -105 146 -105 174 0 6 -27 40 -60 75 -33 36
-60 70 -60 77 0 7 -11 25 -24 41 -13 15 -32 46 -44 68 -11 22 -37 56 -57 75
-20 19 -45 52 -56 72 -10 21 -32 52 -48 70 -15 18 -32 43 -36 56 -4 13 -27 46
-51 73 -24 27 -44 58 -44 68 0 10 -9 26 -21 37 -12 10 -32 39 -44 64 -13 25
-49 70 -80 100 -31 30 -66 73 -77 95 -11 22 -29 51 -39 64 -11 13 -19 30 -19
39 0 8 -25 41 -55 74 -31 33 -54 65 -52 72 6 18 664 6 792 -14 33 -5 92 -13
130 -16 39 -4 82 -13 96 -20 17 -9 71 -14 155 -15 96 -1 141 -6 175 -20 35
-13 87 -19 210 -23 90 -3 187 -8 214 -10 28 -2 116 -5 198 -7 l147 -4 31 33
c16 17 43 39 60 47 27 14 29 20 29 69 0 40 -5 57 -20 71 -11 10 -20 28 -20 40
0 11 -4 25 -8 31 -5 5 -17 35 -26 66 -10 31 -24 62 -32 69 -8 6 -14 20 -14 31
0 11 -9 31 -19 45 -11 13 -17 32 -14 41 4 13 3 14 -5 3 -12 -17 -16 -9 -32 59
-7 30 -21 70 -31 88 -10 18 -19 44 -19 57 0 14 -9 29 -21 35 -28 15 -59 69
-59 103 0 16 -8 41 -18 55 -24 35 -62 129 -62 153 0 10 -9 33 -20 51 -11 18
-20 42 -20 54 0 12 -12 39 -28 60 -33 47 -52 88 -52 114 0 11 -13 35 -30 53
-16 19 -30 42 -30 50 0 41 -32 133 -55 157 -14 14 -25 33 -25 42 0 9 -4 20
-10 23 -5 3 -10 24 -10 46 0 22 -8 56 -19 77 -10 20 -21 52 -25 71 -5 29 -31
68 -81 122 -8 9 -15 25 -15 36 0 11 -9 32 -20 46 -11 14 -20 30 -20 36 0 7 -9
29 -20 51 -11 22 -20 49 -20 60 0 22 -75 176 -91 186 -5 3 -9 23 -9 45 0 39
-24 97 -61 151 -11 14 -19 40 -19 56 0 18 -10 43 -25 60 -14 17 -33 54 -42 84
-9 29 -25 62 -35 74 -10 11 -18 26 -18 33 0 7 -13 39 -29 70 -24 47 -51 114
-51 127 0 12 78 1 112 -16z m4078 -2330 c0 -10 -7 -20 -15 -24 -11 -4 -15 1
-15 18 0 12 3 26 6 29 11 10 24 -3 24 -23z m-40 -271 c0 -15 -7 -29 -15 -33
-11 -4 -15 2 -15 23 0 16 3 37 6 46 9 23 24 0 24 -36z m-21 -140 c1 -15 -6
-29 -14 -32 -22 -9 -25 5 -13 53 9 35 13 40 19 24 4 -10 8 -31 8 -45z m221
-45 c0 -15 -6 -24 -15 -24 -16 0 -19 17 -9 44 9 22 24 10 24 -20z m-254 -90
c-24 -24 -39 -7 -19 21 15 18 20 20 26 9 5 -9 2 -20 -7 -30z m-106 -14 c0 -5
-5 -10 -11 -10 -5 0 -7 5 -4 10 3 6 8 10 11 10 2 0 4 -4 4 -10z m438 1 c11 -7
11 -9 -1 -14 -16 -6 -27 0 -27 15 0 10 11 10 28 -1z m-578 -19 c0 -15 -11 -21
-27 -15 -12 5 -12 7 -1 14 17 11 28 11 28 1z m-120 -27 c0 -16 -9 -19 -35 -9
-13 5 -14 8 -3 15 20 13 38 11 38 -6z m-320 -40 c0 -8 -4 -15 -10 -15 -5 0
-10 -11 -10 -25 0 -28 -20 -32 -65 -15 -21 8 -24 13 -16 29 6 10 28 23 48 29
53 14 53 14 53 -3z m1219 -114 c15 -10 5 -14 -61 -26 -40 -6 -41 -6 -32 19 7
18 69 22 93 7z m-282 -117 l-11 -37 -8 29 c-5 19 -3 31 5 36 22 14 25 8 14
-28z m-1077 -139 c0 -14 -4 -25 -10 -25 -8 0 -8 23 -1 48 4 12 11 -3 11 -23z
m-340 -130 c0 -8 -4 -15 -10 -15 -5 0 -10 7 -10 15 0 8 5 15 10 15 6 0 10 -7
10 -15z m1994 -120 c-18 -27 -34 -25 -34 6 0 14 7 19 25 19 25 0 25 -1 9 -25z
m-226 -192 c-5 -25 -28 -28 -28 -4 0 12 6 21 16 21 9 0 14 -7 12 -17z m537
-53 c0 -8 -8 -16 -17 -18 -13 -2 -18 3 -18 18 0 15 5 20 18 18 9 -2 17 -10 17
-18z m-545 -25 c0 -15 -6 -25 -14 -25 -21 0 -27 28 -8 39 23 14 22 14 22 -14z
m517 -40 c-7 -16 -42 -21 -51 -6 -4 5 6 14 21 19 32 11 38 9 30 -13z m-374 -9
c6 -14 0 -26 -14 -26 -3 0 -9 9 -12 20 -6 23 18 28 26 6z m756 -3498 c10 -24
21 -60 25 -82 4 -21 12 -46 18 -56 9 -14 6 -34 -10 -87 -12 -38 -22 -78 -22
-90 0 -12 -4 -25 -10 -28 -5 -3 -10 -24 -10 -45 0 -86 -45 -223 -72 -217 -7 1
-14 -11 -18 -28 -3 -18 -8 -25 -13 -18 -7 11 -5 23 10 61 4 9 7 89 8 177 3
237 4 243 21 165 7 -36 16 -71 19 -78 10 -27 22 -1 24 54 1 32 5 62 7 66 3 5
1 14 -4 21 -5 7 -12 34 -15 61 -3 36 -11 54 -28 67 -22 16 -22 19 -7 36 8 10
19 28 22 41 11 35 35 26 55 -20z m-123 -782 c8 -8 14 -22 14 -31 0 -21 -18
-55 -29 -55 -11 0 -22 66 -14 86 7 18 11 18 29 0z m324 -700 c0 -7 -9 -21 -20
-31 -11 -10 -20 -30 -20 -45 0 -15 -9 -35 -20 -45 -12 -11 -20 -31 -20 -49 0
-17 -9 -42 -20 -56 -11 -14 -20 -31 -20 -37 0 -7 -4 -13 -10 -13 -5 0 -10 -17
-10 -38 0 -30 -9 -47 -44 -87 -43 -49 -71 -56 -47 -13 7 13 21 40 32 61 10 20
23 37 27 37 8 0 24 34 48 105 17 53 56 140 74 165 5 8 15 28 20 43 10 27 30
29 30 3z m-240 -489 c0 -13 -9 -32 -20 -42 -12 -11 -20 -31 -20 -51 0 -18 -5
-36 -12 -40 -17 -11 -2 85 17 106 8 9 15 24 15 33 0 9 5 17 10 17 6 0 10 -11
10 -23z m-88 -229 c-7 -7 -12 -20 -12 -29 0 -10 -5 -21 -11 -24 -21 -14 -21 5
1 40 12 20 25 33 28 30 3 -3 0 -11 -6 -17z m-6726 -122 c8 -8 14 -22 14 -30 0
-9 5 -16 10 -16 19 0 11 -107 -11 -146 -30 -54 -43 -64 -85 -64 -49 0 -84 32
-84 76 0 18 -5 36 -11 40 -8 4 -8 9 0 17 6 6 11 24 11 39 0 27 12 56 35 85 14
17 103 17 121 -1z m956 -62 c1 -30 -1 -60 -7 -65 -5 -6 -13 -44 -17 -84 -5
-41 -12 -108 -17 -147 -31 -237 -49 -408 -50 -465 -1 -43 -1 -43 34 -43 26 0
35 4 35 18 1 9 7 -1 15 -23 18 -49 18 -56 3 -52 -16 3 -24 -111 -9 -126 16
-16 13 -37 -3 -37 -18 0 -33 -77 -17 -93 15 -15 14 -64 -3 -74 -17 -10 -30
-79 -16 -88 5 -3 10 -22 10 -41 0 -25 -4 -34 -16 -34 -14 0 -16 -8 -10 -62 7
-58 6 -61 -10 -47 -16 13 -17 12 -12 -6 6 -25 -10 -42 -37 -37 -17 4 -18 2 -6
-12 12 -15 1 -16 -124 -16 -121 0 -136 2 -125 15 10 12 10 15 -4 15 -9 0 -16
-6 -17 -12 0 -10 -2 -10 -6 0 -2 6 -12 12 -20 12 -13 0 -13 -2 -2 -16 12 -15
10 -16 -19 -10 -24 6 -32 4 -32 -6 0 -11 -20 -14 -84 -15 -65 -1 -83 2 -80 12
4 9 -3 11 -22 7 -22 -4 -26 -2 -21 11 4 10 1 14 -6 12 -17 -6 -48 20 -45 36 2
9 -4 13 -14 11 -11 -2 -18 3 -18 13 0 8 -4 15 -9 15 -5 0 -7 10 -3 23 5 20 4
21 -13 7 -17 -14 -18 -13 -11 14 6 24 4 27 -9 22 -13 -5 -15 0 -9 29 5 28 3
35 -10 35 -18 0 -21 11 -7 25 13 14 1 65 -15 65 -16 0 -20 65 -4 75 13 8 13
142 0 150 -18 11 -12 73 9 85 14 7 21 23 23 53 l3 42 41 -1 c40 0 41 0 67 58
15 32 27 63 27 68 0 6 4 18 9 28 5 9 19 37 31 62 13 25 28 55 34 67 6 13 14
23 19 23 4 0 7 6 7 13 0 15 59 73 107 106 24 16 48 22 93 23 56 1 64 -2 96
-33 18 -18 34 -41 34 -51 0 -11 7 -18 20 -18 11 0 20 3 21 8 9 105 22 234 30
297 5 44 12 110 15 148 l6 67 83 0 83 0 4 -56z m6664 -35 c3 -5 14 -9 24 -9
36 0 111 -73 144 -141 l23 -46 -21 -24 c-12 -14 -37 -44 -56 -67 -36 -44 -50
-52 -50 -27 0 8 -17 32 -38 55 -33 33 -45 40 -78 40 -61 0 -140 -59 -179 -133
-6 -12 -16 -31 -22 -42 -47 -88 -76 -212 -71 -305 l3 -65 37 -3 37 -3 3 -52
c2 -36 7 -51 16 -49 17 3 27 -27 13 -41 -14 -14 -15 -54 -1 -62 6 -3 10 -14
10 -24 0 -23 36 -56 45 -42 3 6 15 11 26 11 10 0 19 4 19 10 0 5 7 7 16 3 12
-4 15 -2 12 8 -5 15 17 43 29 36 14 -8 53 12 53 28 0 9 9 15 25 15 15 0 25 -6
25 -15 0 -8 9 -19 21 -25 27 -15 59 -47 52 -53 -2 -3 0 -13 5 -24 6 -10 17
-34 26 -54 9 -20 23 -40 32 -43 13 -5 14 -9 5 -20 -9 -11 -9 -16 1 -23 19 -12
16 -85 -4 -105 -10 -10 -15 -24 -12 -31 6 -17 -97 -115 -115 -109 -10 3 -12 0
-8 -12 5 -11 1 -16 -13 -16 -11 0 -20 -6 -20 -12 0 -10 -3 -9 -9 1 -10 16 -31
6 -31 -15 0 -12 -7 -14 -32 -9 -24 6 -30 4 -26 -7 5 -11 -14 -14 -102 -15 -84
-1 -107 2 -104 12 4 9 -2 11 -20 8 -19 -4 -26 -1 -26 11 0 9 -7 16 -15 16 -8
0 -24 9 -36 21 -11 11 -27 18 -36 15 -10 -4 -13 -2 -10 8 4 9 1 13 -6 10 -13
-5 -59 40 -50 49 11 11 -18 46 -33 40 -12 -4 -15 -1 -12 13 5 22 -28 95 -49
107 -11 7 -12 11 -1 24 10 12 9 17 -6 28 -10 8 -15 18 -12 24 4 6 4 26 1 45
-5 24 -11 33 -21 29 -16 -6 -19 12 -5 22 6 3 10 62 10 131 0 70 3 129 6 132 3
3 22 6 42 6 l38 1 11 75 c23 147 32 190 54 245 4 11 13 38 19 60 12 40 70 166
81 175 3 3 17 21 30 40 61 87 156 155 225 162 17 2 29 8 28 13 -2 13 75 7 83
-6z m884 11 c0 -5 15 -16 34 -25 35 -17 62 -62 86 -140 12 -40 9 -160 -5 -220
-14 -64 -72 -160 -135 -227 -36 -39 -69 -77 -73 -84 -8 -14 14 -68 33 -79 6
-4 50 -7 98 -7 l87 0 18 33 c9 19 26 55 37 82 l19 47 76 0 c85 0 83 3 59 -89
-8 -34 -13 -65 -10 -70 3 -5 21 -5 41 -1 34 8 56 -2 35 -15 -5 -3 -10 -19 -10
-35 0 -16 -5 -32 -11 -36 -6 -3 -9 -14 -6 -24 3 -11 -1 -21 -9 -24 -7 -3 -11
-12 -8 -19 3 -8 -2 -17 -10 -20 -9 -4 -16 -13 -16 -21 0 -9 -9 -32 -21 -53
-20 -35 -20 -37 -3 -50 10 -7 26 -11 36 -7 13 4 16 1 12 -9 -3 -8 5 -23 18
-33 16 -14 22 -27 20 -48 -2 -16 1 -33 7 -39 16 -16 13 -27 -5 -27 -13 0 -15
-7 -9 -36 5 -32 4 -36 -10 -30 -15 5 -16 1 -11 -29 6 -28 4 -35 -9 -35 -13 0
-15 -6 -10 -30 5 -23 3 -30 -9 -30 -9 0 -16 -8 -16 -19 0 -10 -7 -21 -15 -25
-8 -3 -12 -12 -9 -21 4 -10 0 -15 -10 -15 -9 0 -16 -4 -16 -8 0 -5 -23 -8 -51
-7 -36 1 -54 7 -61 19 -5 9 -14 14 -19 10 -6 -3 -17 2 -24 12 -13 17 -16 17
-25 4 -6 -10 -10 -11 -10 -2 0 6 -10 12 -21 12 -19 0 -20 2 -8 17 12 15 12 16
-8 11 -12 -3 -24 -1 -27 6 -3 7 -10 5 -19 -6 -8 -10 -20 -18 -27 -18 -7 0 -10
-7 -6 -16 5 -13 1 -14 -24 -9 -26 6 -29 4 -23 -11 5 -15 2 -16 -30 -11 -27 4
-35 2 -31 -7 4 -11 -17 -13 -100 -13 -75 1 -106 5 -106 13 0 15 -28 26 -35 14
-11 -18 -35 -11 -28 7 5 12 2 15 -10 10 -9 -3 -17 -2 -17 3 0 17 -101 110
-112 104 -7 -5 -9 -1 -5 9 8 22 -12 67 -30 67 -16 0 -17 16 -2 26 8 4 4 13
-12 24 -19 15 -21 21 -11 33 15 17 5 77 -15 92 -10 8 -12 22 -7 55 7 38 9 41
14 20 5 -18 8 -8 13 38 4 35 4 75 1 88 -5 18 -3 24 7 22 9 -2 15 8 17 30 2 17
7 32 13 32 5 0 9 8 9 18 1 23 39 73 40 51 0 -12 9 -15 34 -15 30 1 47 14 111
80 l77 78 -6 46 c-14 109 -18 264 -7 275 6 6 11 24 11 39 0 16 4 36 9 46 5 9
19 38 31 63 33 70 104 139 144 139 9 0 16 4 16 9 0 6 19 12 43 14 23 2 45 4
50 5 4 1 7 -2 7 -8z m-9524 -7 c11 -9 34 -302 34 -448 1 -114 15 -272 28 -305
9 -23 14 -25 52 -22 53 5 63 21 114 178 21 65 42 127 47 136 5 10 9 29 9 42 0
14 5 28 10 31 5 3 10 17 10 30 0 13 5 27 10 30 6 3 10 17 10 30 0 13 5 27 10
30 6 3 10 19 10 35 0 16 5 32 10 35 6 3 10 19 10 35 0 16 5 32 10 35 6 3 10
17 10 30 0 13 5 27 10 30 6 3 10 17 10 29 0 38 21 47 107 44 73 -3 78 -4 81
-27 2 -13 -1 -28 -7 -34 -6 -6 -11 -21 -11 -33 0 -13 -4 -26 -10 -29 -5 -3
-10 -15 -10 -26 0 -10 -4 -28 -10 -39 -5 -11 -14 -29 -20 -40 -5 -11 -10 -29
-10 -39 0 -11 -4 -23 -10 -26 -5 -3 -10 -17 -10 -30 0 -13 -4 -27 -10 -30 -5
-3 -10 -17 -10 -30 0 -13 -4 -27 -10 -30 -5 -3 -10 -15 -10 -26 0 -10 -4 -27
-9 -37 -5 -9 -14 -35 -20 -57 -7 -22 -16 -49 -20 -60 -18 -45 -31 -94 -37
-138 l-7 -47 37 0 c21 0 36 5 36 12 0 9 3 8 13 -1 10 -11 10 -14 0 -18 -7 -3
-13 -18 -13 -34 0 -16 -4 -29 -10 -29 -5 0 -10 -13 -10 -29 0 -17 -4 -33 -10
-36 -5 -3 -10 -17 -10 -30 0 -13 -5 -27 -11 -31 -6 -3 -9 -17 -6 -30 2 -14 -1
-25 -9 -28 -8 -3 -14 -16 -14 -30 0 -14 -5 -28 -11 -32 -6 -3 -9 -17 -6 -30 2
-13 0 -24 -5 -24 -5 0 -7 -13 -3 -30 5 -24 3 -30 -10 -30 -13 0 -15 -6 -10
-30 5 -24 3 -30 -10 -30 -13 0 -15 -6 -10 -30 5 -24 3 -30 -10 -30 -13 0 -15
-6 -10 -30 5 -24 3 -30 -10 -30 -13 0 -15 -6 -10 -30 6 -26 4 -29 -11 -23 -12
4 -15 2 -12 -8 7 -20 -13 -37 -37 -31 -18 5 -18 4 -6 -11 12 -16 1 -17 -153
-17 -95 0 -166 4 -166 9 0 16 -61 71 -72 65 -6 -4 -7 11 -2 41 8 55 8 53 6
123 -2 39 -6 52 -17 52 -12 0 -15 16 -15 80 0 47 4 80 10 80 6 0 10 53 10 139
l0 140 38 3 37 3 3 150 c2 83 -1 206 -7 275 -6 69 -12 175 -14 236 l-2 111 75
2 c41 1 80 -2 86 -6z m10437 -42 c-2 -25 -6 -59 -9 -76 -4 -29 -17 -124 -34
-255 -4 -36 -13 -112 -19 -170 -6 -58 -13 -118 -16 -134 -3 -16 -2 -45 1 -64
l7 -34 48 5 c29 4 49 2 49 -3 0 -6 -7 -10 -15 -10 -12 0 -15 -13 -15 -61 0
-33 5 -70 11 -81 9 -18 9 -20 -4 -15 -13 5 -17 -4 -23 -39 -3 -25 -3 -48 1
-52 3 -4 68 -9 144 -12 110 -4 141 -9 154 -22 9 -9 17 -21 17 -27 0 -6 9 -15
20 -21 23 -13 29 -70 6 -70 -16 0 -30 -70 -16 -84 6 -6 10 -27 10 -48 0 -29
-4 -38 -16 -38 -14 0 -16 -7 -11 -44 5 -37 3 -46 -18 -66 -13 -12 -28 -19 -34
-16 -7 4 -8 1 -5 -8 5 -14 -29 -16 -321 -16 -303 0 -326 1 -314 16 12 15 11
16 -7 10 -23 -7 -50 16 -39 33 3 6 0 9 -7 6 -11 -4 -12 7 -7 57 3 35 2 67 -2
73 -14 15 -11 65 5 65 17 0 29 59 15 76 -13 16 -7 60 8 57 17 -4 29 86 14 109
-15 24 -14 31 4 25 18 -8 30 48 21 103 -5 32 -3 40 9 40 10 0 15 10 16 28 1
33 17 78 18 50 1 -12 9 -18 26 -18 14 0 28 -1 31 -2 17 -7 42 115 85 422 5 36
14 99 20 140 5 41 13 108 15 148 l6 73 87 -2 88 -2 -4 -46z m-7745 -295 c2 -3
-1 -22 -8 -43 -25 -81 -30 -100 -30 -116 0 -9 -5 -28 -12 -42 -10 -22 -17 -25
-63 -25 -46 0 -54 -4 -87 -37 -52 -56 -105 -181 -73 -176 63 9 70 8 73 -16 2
-13 -1 -28 -7 -34 -15 -15 -14 -120 0 -134 13 -13 4 -47 -10 -38 -15 9 -26
-85 -12 -107 15 -25 14 -58 -3 -58 -16 0 -30 -70 -16 -84 16 -16 12 -86 -4
-86 -16 0 -28 -60 -15 -75 15 -15 10 -38 -7 -31 -9 3 -12 2 -9 -5 11 -17 -16
-40 -39 -33 -18 6 -19 5 -7 -10 12 -15 2 -16 -133 -16 -82 0 -146 4 -146 9 0
12 -59 71 -71 71 -5 0 -9 30 -9 66 0 53 3 65 14 61 16 -7 29 52 15 68 -14 15
-10 65 5 71 21 8 30 62 16 90 -13 24 -7 59 9 50 5 -3 11 4 15 17 9 34 7 75 -4
82 -17 11 -11 35 10 35 16 0 19 8 22 57 l3 58 41 -3 c55 -4 55 -5 95 243 5 33
12 86 15 118 l6 57 74 0 74 0 -5 -45 c-3 -25 -7 -65 -10 -90 -8 -74 23 -65 65
20 32 64 99 132 136 138 29 5 84 0 92 -7z m558 4 c18 0 84 -65 84 -81 0 -21
20 -38 36 -32 8 3 14 19 14 37 0 46 16 56 88 56 l64 0 -6 -42 c-19 -142 -29
-242 -30 -303 l-1 -70 38 -3 37 -3 0 -58 c0 -31 5 -62 11 -68 12 -12 3 -37
-11 -28 -4 3 -10 -5 -14 -18 -9 -34 -7 -75 4 -82 15 -9 12 -65 -4 -71 -19 -7
-30 -72 -16 -89 14 -17 9 -71 -6 -68 -14 3 -24 -52 -12 -69 14 -23 9 -78 -7
-78 -8 0 -15 -6 -15 -14 0 -8 -15 -31 -34 -50 l-33 -36 -117 0 c-71 0 -116 4
-116 10 0 6 -11 10 -25 10 -14 0 -25 -4 -25 -9 0 -4 -11 -6 -25 -3 -18 3 -25
0 -25 -11 0 -24 -148 -18 -161 6 -6 10 -14 15 -19 12 -6 -3 -20 3 -32 15 -12
11 -28 18 -35 16 -8 -3 -10 1 -6 11 5 12 2 15 -10 10 -11 -4 -14 -2 -11 8 3 7
-4 23 -15 34 -12 12 -21 26 -21 32 0 6 -7 8 -16 5 -13 -5 -14 -1 -9 24 5 24 3
30 -10 30 -13 0 -15 7 -9 35 5 28 3 35 -10 35 -11 0 -16 9 -16 29 0 17 4 32 8
35 5 3 7 33 5 68 -2 35 -3 68 -2 73 0 6 3 48 5 95 3 47 9 94 14 105 4 11 11
33 15 49 3 17 9 25 13 19 4 -6 20 -13 35 -14 29 -4 35 4 77 116 4 11 17 40 29
63 11 24 21 48 21 54 0 14 60 99 95 133 65 65 120 89 180 79 11 -2 25 -4 31
-4z m1751 -33 c18 -17 33 -36 33 -42 0 -16 35 -47 43 -38 4 3 7 18 7 32 1 47
21 61 89 61 l61 0 0 -35 c0 -19 -4 -54 -10 -77 -15 -71 -31 -252 -24 -286 5
-24 11 -31 23 -28 51 14 81 17 81 7 0 -6 -7 -11 -15 -11 -12 0 -15 -14 -15
-64 0 -36 5 -68 10 -71 15 -9 12 -35 -4 -35 -8 0 -17 -7 -20 -16 -9 -25 -7
-72 4 -79 15 -9 12 -65 -4 -71 -19 -7 -30 -72 -16 -89 14 -17 9 -71 -6 -68
-14 3 -24 -52 -12 -69 13 -21 9 -68 -5 -68 -8 0 -19 -11 -25 -25 -7 -14 -19
-28 -27 -31 -8 -4 -15 -12 -15 -20 0 -11 -25 -14 -125 -14 -114 0 -126 2 -144
22 -18 19 -21 19 -27 5 -3 -10 -17 -17 -30 -17 -13 0 -24 -6 -24 -13 0 -9 -20
-13 -72 -14 -61 0 -75 3 -86 19 -7 10 -17 16 -22 13 -5 -3 -29 14 -53 38 -25
23 -50 41 -56 39 -6 -2 -11 3 -11 12 0 9 -4 16 -9 16 -5 0 -7 9 -4 20 3 11 0
20 -6 20 -5 0 -8 6 -5 14 3 8 -4 23 -16 34 -14 13 -18 22 -11 27 16 9 13 23
-9 42 -21 18 -27 67 -10 78 6 4 9 65 7 156 -1 114 1 149 11 149 7 0 12 14 13
33 0 17 4 41 9 52 8 19 9 19 9 -4 1 -17 5 -22 17 -17 9 3 24 6 34 6 14 0 25
19 45 73 34 93 62 152 97 204 15 23 28 44 28 48 0 8 68 75 76 75 3 0 18 9 33
19 54 39 138 34 188 -12z m991 37 c24 -7 27 -21 13 -68 -12 -38 -28 -102 -36
-138 -5 -25 -9 -27 -55 -26 -39 0 -58 -6 -85 -26 -35 -27 -80 -108 -91 -164
l-7 -33 40 7 c40 6 41 6 45 -27 3 -19 8 -42 13 -51 5 -13 3 -18 -8 -18 -8 0
-17 -10 -21 -22 -9 -36 -7 -98 4 -98 6 0 10 -12 10 -26 0 -19 -4 -25 -14 -21
-20 8 -34 -78 -17 -105 16 -25 14 -68 -3 -68 -16 0 -28 -60 -15 -75 16 -16 11
-85 -6 -85 -13 0 -20 -23 -16 -56 1 -7 -5 -14 -14 -17 -8 -4 -12 -13 -9 -22 4
-10 0 -15 -10 -15 -9 0 -16 -4 -16 -10 0 -6 -55 -10 -145 -10 -90 0 -145 4
-145 10 0 6 -10 10 -21 10 -17 0 -19 3 -10 13 13 17 5 28 -15 20 -12 -4 -14 0
-8 21 5 21 3 25 -10 20 -13 -5 -16 1 -16 30 0 24 5 36 14 36 16 0 28 60 15 75
-14 14 -11 65 5 71 20 8 29 69 15 92 -13 21 -5 57 10 47 14 -8 26 84 12 98
-15 15 -14 37 3 37 16 0 26 30 26 83 0 47 23 73 61 68 24 -2 31 3 43 31 8 18
19 67 26 108 6 41 15 97 20 123 6 27 10 63 10 80 0 72 5 77 81 77 l69 0 0 -90
c0 -73 3 -90 15 -90 8 0 15 7 15 15 0 14 19 54 30 65 3 3 17 21 30 40 31 44
66 73 99 81 37 9 43 9 69 3z m-5003 -56 c-11 -51 -25 -183 -32 -291 l-5 -99
38 4 39 3 6 -65 c5 -47 3 -68 -7 -78 -16 -15 -19 -102 -4 -102 16 0 12 -57 -4
-63 -19 -8 -32 -75 -17 -90 16 -16 14 -67 -3 -67 -16 0 -28 -60 -15 -75 16
-16 10 -75 -7 -82 -11 -4 -14 -14 -10 -34 4 -21 2 -27 -8 -23 -8 3 -24 -8 -37
-25 l-23 -31 -139 0 c-115 0 -138 2 -134 14 4 10 0 12 -14 9 -16 -5 -20 -1
-17 13 2 13 -3 19 -14 18 -14 -1 -16 4 -11 27 4 22 2 29 -11 29 -9 0 -16 8
-16 20 0 11 6 20 14 20 16 0 28 51 15 65 -14 14 -11 63 5 72 18 10 32 78 17
87 -16 10 -13 46 4 52 20 8 31 72 16 95 -15 25 -14 39 4 39 19 0 29 41 21 90
-5 31 -3 40 8 40 7 0 16 15 20 33 5 22 9 28 15 19 5 -8 21 -12 36 -10 25 3 30
9 42 53 13 49 26 128 43 250 16 121 10 115 107 115 l86 0 -8 -32z m-1228 -370
c-3 -7 -5 -2 -5 12 0 14 2 19 5 13 2 -7 2 -19 0 -25z m8660 10 c-3 -8 -6 -5
-6 6 -1 11 2 17 5 13 3 -3 4 -12 1 -19z m2176 -285 c-23 -2 -64 -2 -90 0 -26
2 -7 3 42 3 50 0 71 -1 48 -3z"/>
<path d="M6450 8231 c0 -5 -12 -11 -27 -13 -29 -3 -37 -16 -24 -37 8 -12 15
-11 45 10 37 25 47 49 21 49 -8 0 -15 -4 -15 -9z"/>
<path d="M6503 8210 c-21 -8 -23 -16 -23 -74 0 -73 11 -86 72 -86 28 0 37 6
52 35 18 34 18 36 1 55 -16 18 -17 21 -1 44 9 14 16 28 16 31 0 8 -93 4 -117
-5z"/>
<path d="M6400 8080 c0 -16 7 -20 33 -20 l32 1 -24 19 c-30 25 -41 25 -41 0z"/>
<path d="M6517 7894 c-9 -9 -9 -91 -1 -133 5 -22 12 -31 23 -29 23 5 24 161 1
166 -9 1 -19 0 -23 -4z"/>
<path d="M6367 7788 c-9 -26 5 -219 17 -215 12 4 21 166 11 205 -6 24 -20 29
-28 10z"/>
<path d="M6370 7531 c0 -17 5 -33 10 -36 6 -4 10 8 10 29 0 20 -4 36 -10 36
-5 0 -10 -13 -10 -29z"/>
<path d="M5890 7395 c-5 -14 -13 -37 -16 -50 -3 -14 -9 -25 -13 -25 -12 0 -32
-50 -25 -61 3 -6 13 -7 23 -3 9 4 26 6 39 5 21 -1 22 3 22 79 0 82 -12 103
-30 55z"/>
<path d="M6430 7321 c0 -48 3 -61 15 -61 13 0 15 11 13 57 -4 81 -28 85 -28 4z"/>
<path d="M6790 7266 c0 -9 7 -16 16 -16 9 0 14 5 12 12 -6 18 -28 21 -28 4z"/>
<path d="M6915 7013 c-3 -16 -10 -44 -15 -64 -13 -48 -13 -126 0 -134 6 -3 10
-15 10 -27 0 -14 5 -18 16 -14 9 3 20 6 25 6 10 0 12 144 3 214 -8 52 -30 63
-39 19z"/>
<path d="M6320 6895 c0 -33 4 -45 15 -45 11 0 15 12 15 45 0 33 -4 45 -15 45
-11 0 -15 -12 -15 -45z"/>
<path d="M6677 6934 c-4 -4 -7 -23 -7 -42 0 -25 5 -35 19 -39 11 -3 21 -14 24
-25 5 -16 13 -19 44 -16 l38 3 3 58 3 57 -38 0 c-21 0 -47 3 -58 6 -11 3 -24
2 -28 -2z"/>
<path d="M6501 6758 c1 -7 -1 -20 -5 -29 -4 -8 -5 -73 -4 -145 l3 -129 28 -3
27 -3 0 160 0 161 -25 0 c-15 0 -25 -5 -24 -12z"/>
<path d="M6870 6748 c0 -50 13 -128 21 -128 5 0 9 34 9 75 0 60 -3 75 -15 75
-9 0 -15 -9 -15 -22z"/>
<path d="M6455 6688 c-9 -24 -1 -113 10 -111 14 4 19 103 6 116 -7 7 -12 5
-16 -5z"/>
<path d="M6510 5810 c0 -153 1 -160 20 -160 19 0 20 7 20 160 0 153 -1 160
-20 160 -19 0 -20 -7 -20 -160z"/>
<path d="M6571 5184 c0 -11 3 -14 6 -6 3 7 2 16 -1 19 -3 4 -6 -2 -5 -13z"/>
<path d="M6573 5055 c0 -22 2 -30 4 -17 2 12 2 30 0 40 -3 9 -5 -1 -4 -23z"/>
<path d="M6720 4940 c0 -40 4 -70 10 -70 6 0 10 30 10 70 0 40 -4 70 -10 70
-6 0 -10 -30 -10 -70z"/>
<path d="M6730 4814 c0 -57 19 -114 37 -114 11 0 13 18 11 78 -3 71 -5 77 -25
80 -21 3 -23 -1 -23 -44z"/>
<path d="M7260 2223 c-47 -8 -88 -33 -129 -80 -23 -25 -41 -53 -41 -62 0 -10
-5 -22 -12 -29 -8 -8 -12 -45 -12 -105 0 -82 3 -97 27 -139 l27 -46 -25 -16
c-14 -9 -31 -27 -40 -39 -24 -37 -69 -480 -50 -498 2 -3 20 -3 40 -1 38 5 42
12 64 132 5 30 14 79 20 108 6 30 11 71 11 92 0 21 4 50 10 64 9 25 12 26 96
26 78 0 85 -2 79 -17 -12 -30 -45 -380 -38 -395 2 -5 17 -8 33 -8 15 0 30 -5
32 -12 11 -33 49 123 78 324 19 128 18 157 -6 193 -12 17 -11 22 10 45 32 33
66 96 66 120 0 11 5 40 12 64 12 46 5 85 -28 161 -35 82 -132 133 -224 118z
m92 -150 c10 -9 18 -24 18 -34 0 -10 5 -21 11 -25 24 -14 -10 -143 -47 -181
-21 -22 -88 -16 -112 10 -30 32 -50 112 -34 137 7 11 12 28 12 37 0 10 10 30
23 45 18 22 30 28 66 28 28 0 51 -6 63 -17z"/>
<path d="M7872 1410 c-36 -34 -72 -108 -80 -162 l-5 -38 43 0 c31 0 46 -6 60
-22 l17 -22 8 23 c6 19 13 22 47 20 46 -4 50 1 68 83 12 53 12 58 -11 90 -32
46 -49 57 -85 58 -21 0 -41 -10 -62 -30z"/>
<path d="M6991 1184 c0 -11 3 -14 6 -6 3 7 2 16 -1 19 -3 4 -6 -2 -5 -13z"/>
<path d="M2388 1402 c-36 -39 -66 -105 -70 -157 -3 -28 -1 -30 36 -33 l38 -3
-6 -55 c-3 -30 -9 -79 -12 -109 -4 -30 -3 -62 0 -71 6 -16 8 -16 23 -1 16 16
28 72 39 182 6 63 13 83 22 68 4 -6 20 -13 37 -14 24 -3 32 1 43 24 7 15 16
51 19 80 4 47 2 55 -27 90 -26 31 -38 37 -69 37 -31 0 -44 -7 -73 -38z"/>
<path d="M10266 1787 c-20 -18 -36 -41 -36 -50 0 -9 -4 -19 -10 -22 -14 -9
-13 -232 1 -241 17 -10 111 92 137 148 29 63 30 146 2 176 -29 30 -51 28 -94
-11z"/>
<path d="M4008 1408 c-37 -36 -71 -102 -82 -159 -8 -44 -3 -49 39 -39 38 9 52
-8 35 -40 -15 -29 -13 -213 2 -208 18 6 36 74 37 135 1 28 5 54 10 57 4 3 12
25 16 48 6 38 8 41 16 20 7 -18 15 -22 36 -19 25 3 30 10 44 68 17 71 12 95
-30 142 -35 38 -78 37 -123 -5z"/>
<path d="M5710 1409 c-38 -36 -78 -119 -82 -169 -3 -37 -2 -37 67 -27 14 3 19
-43 6 -56 -14 -14 -15 -184 -1 -192 15 -9 40 63 40 116 0 26 4 50 9 53 5 3 12
32 17 63 4 32 9 48 12 36 3 -18 10 -23 36 -23 27 0 34 5 43 33 26 72 26 104 2
139 -32 46 -49 57 -85 58 -21 0 -41 -10 -64 -31z"/>
<path d="M4693 165 c0 -27 2 -38 4 -22 2 15 2 37 0 50 -2 12 -4 0 -4 -28z"/>
</g>
</svg>
